<mxfile host="app.diagrams.net" modified="2022-11-06T15:55:43.092Z" agent="5.0 (Windows NT 10.0; Win64; x64) AppleWebKit/537.36 (KHTML, like Gecko) Chrome/107.0.0.0 Safari/537.36" etag="7QOl0ounloJgmHfzZmYt" version="20.5.1" type="github">
  <diagram id="C5RBs43oDa-KdzZeNtuy" name="Page-1">
    <mxGraphModel dx="2130" dy="905" grid="1" gridSize="10" guides="1" tooltips="1" connect="1" arrows="1" fold="1" page="1" pageScale="1" pageWidth="827" pageHeight="1169" math="0" shadow="0">
      <root>
        <mxCell id="WIyWlLk6GJQsqaUBKTNV-0" />
        <mxCell id="WIyWlLk6GJQsqaUBKTNV-1" parent="WIyWlLk6GJQsqaUBKTNV-0" />
        <mxCell id="6Q9TmJvOrxfbNUQ0NDXa-0" style="edgeStyle=orthogonalEdgeStyle;rounded=0;orthogonalLoop=1;jettySize=auto;html=1;exitX=0.5;exitY=1;exitDx=0;exitDy=0;" edge="1" parent="WIyWlLk6GJQsqaUBKTNV-1" source="6Q9TmJvOrxfbNUQ0NDXa-4" target="6Q9TmJvOrxfbNUQ0NDXa-11">
          <mxGeometry relative="1" as="geometry" />
        </mxCell>
        <mxCell id="6Q9TmJvOrxfbNUQ0NDXa-1" style="edgeStyle=orthogonalEdgeStyle;rounded=0;orthogonalLoop=1;jettySize=auto;html=1;exitX=0.5;exitY=1;exitDx=0;exitDy=0;entryX=0.5;entryY=0;entryDx=0;entryDy=0;" edge="1" parent="WIyWlLk6GJQsqaUBKTNV-1" source="6Q9TmJvOrxfbNUQ0NDXa-4" target="6Q9TmJvOrxfbNUQ0NDXa-18">
          <mxGeometry relative="1" as="geometry" />
        </mxCell>
        <mxCell id="6Q9TmJvOrxfbNUQ0NDXa-2" style="edgeStyle=orthogonalEdgeStyle;rounded=0;orthogonalLoop=1;jettySize=auto;html=1;exitX=0.5;exitY=1;exitDx=0;exitDy=0;entryX=0.5;entryY=0;entryDx=0;entryDy=0;" edge="1" parent="WIyWlLk6GJQsqaUBKTNV-1" source="6Q9TmJvOrxfbNUQ0NDXa-4" target="6Q9TmJvOrxfbNUQ0NDXa-25">
          <mxGeometry relative="1" as="geometry" />
        </mxCell>
        <mxCell id="6Q9TmJvOrxfbNUQ0NDXa-3" style="edgeStyle=orthogonalEdgeStyle;rounded=0;orthogonalLoop=1;jettySize=auto;html=1;exitX=1;exitY=0.5;exitDx=0;exitDy=0;entryX=0;entryY=0.5;entryDx=0;entryDy=0;" edge="1" parent="WIyWlLk6GJQsqaUBKTNV-1" source="6Q9TmJvOrxfbNUQ0NDXa-4" target="6Q9TmJvOrxfbNUQ0NDXa-32">
          <mxGeometry relative="1" as="geometry" />
        </mxCell>
        <mxCell id="6Q9TmJvOrxfbNUQ0NDXa-4" value="c: Customer" style="swimlane;html=1;fontStyle=1;align=center;verticalAlign=top;childLayout=stackLayout;horizontal=1;startSize=26;horizontalStack=0;resizeParent=1;resizeLast=0;collapsible=1;marginBottom=0;swimlaneFillColor=#ffffff;rounded=0;shadow=0;comic=0;labelBackgroundColor=none;strokeWidth=1;fillColor=none;fontFamily=Verdana;fontSize=12" vertex="1" parent="WIyWlLk6GJQsqaUBKTNV-1">
          <mxGeometry x="320" y="210" width="140" height="184" as="geometry" />
        </mxCell>
        <mxCell id="6Q9TmJvOrxfbNUQ0NDXa-5" value="Id: j65m" style="text;strokeColor=none;fillColor=none;align=left;verticalAlign=middle;spacingLeft=4;spacingRight=4;overflow=hidden;points=[[0,0.5],[1,0.5]];portConstraint=eastwest;rotatable=0;" vertex="1" parent="6Q9TmJvOrxfbNUQ0NDXa-4">
          <mxGeometry y="26" width="140" height="30" as="geometry" />
        </mxCell>
        <mxCell id="6Q9TmJvOrxfbNUQ0NDXa-6" value="name: Jessica" style="text;strokeColor=none;fillColor=none;align=left;verticalAlign=middle;spacingLeft=4;spacingRight=4;overflow=hidden;points=[[0,0.5],[1,0.5]];portConstraint=eastwest;rotatable=0;" vertex="1" parent="6Q9TmJvOrxfbNUQ0NDXa-4">
          <mxGeometry y="56" width="140" height="30" as="geometry" />
        </mxCell>
        <mxCell id="6Q9TmJvOrxfbNUQ0NDXa-7" value="password: 56#68" style="text;strokeColor=none;fillColor=none;align=left;verticalAlign=middle;spacingLeft=4;spacingRight=4;overflow=hidden;points=[[0,0.5],[1,0.5]];portConstraint=eastwest;rotatable=0;" vertex="1" parent="6Q9TmJvOrxfbNUQ0NDXa-4">
          <mxGeometry y="86" width="140" height="30" as="geometry" />
        </mxCell>
        <mxCell id="6Q9TmJvOrxfbNUQ0NDXa-8" value="phone: 07 10 11 12 36" style="text;strokeColor=none;fillColor=none;align=left;verticalAlign=middle;spacingLeft=4;spacingRight=4;overflow=hidden;points=[[0,0.5],[1,0.5]];portConstraint=eastwest;rotatable=0;" vertex="1" parent="6Q9TmJvOrxfbNUQ0NDXa-4">
          <mxGeometry y="116" width="140" height="30" as="geometry" />
        </mxCell>
        <mxCell id="6Q9TmJvOrxfbNUQ0NDXa-9" value="account : xxxx 9911" style="text;strokeColor=none;fillColor=none;align=left;verticalAlign=middle;spacingLeft=4;spacingRight=4;overflow=hidden;points=[[0,0.5],[1,0.5]];portConstraint=eastwest;rotatable=0;" vertex="1" parent="6Q9TmJvOrxfbNUQ0NDXa-4">
          <mxGeometry y="146" width="140" height="30" as="geometry" />
        </mxCell>
        <mxCell id="6Q9TmJvOrxfbNUQ0NDXa-10" value="" style="line;html=1;strokeWidth=1;fillColor=none;align=left;verticalAlign=middle;spacingTop=-1;spacingLeft=3;spacingRight=3;rotatable=0;labelPosition=right;points=[];portConstraint=eastwest;" vertex="1" parent="6Q9TmJvOrxfbNUQ0NDXa-4">
          <mxGeometry y="176" width="140" height="8" as="geometry" />
        </mxCell>
        <mxCell id="6Q9TmJvOrxfbNUQ0NDXa-11" value="t1: Ticket" style="swimlane;html=1;fontStyle=1;align=center;verticalAlign=top;childLayout=stackLayout;horizontal=1;startSize=26;horizontalStack=0;resizeParent=1;resizeLast=0;collapsible=1;marginBottom=0;swimlaneFillColor=#ffffff;rounded=0;shadow=0;comic=0;labelBackgroundColor=none;strokeWidth=1;fillColor=none;fontFamily=Verdana;fontSize=12" vertex="1" parent="WIyWlLk6GJQsqaUBKTNV-1">
          <mxGeometry x="30" y="430" width="160" height="184" as="geometry" />
        </mxCell>
        <mxCell id="6Q9TmJvOrxfbNUQ0NDXa-12" value="movie name : Bad Boys" style="text;strokeColor=none;fillColor=none;align=left;verticalAlign=middle;spacingLeft=4;spacingRight=4;overflow=hidden;points=[[0,0.5],[1,0.5]];portConstraint=eastwest;rotatable=0;" vertex="1" parent="6Q9TmJvOrxfbNUQ0NDXa-11">
          <mxGeometry y="26" width="160" height="30" as="geometry" />
        </mxCell>
        <mxCell id="6Q9TmJvOrxfbNUQ0NDXa-13" value="No ticket: 0001563" style="text;strokeColor=none;fillColor=none;align=left;verticalAlign=middle;spacingLeft=4;spacingRight=4;overflow=hidden;points=[[0,0.5],[1,0.5]];portConstraint=eastwest;rotatable=0;" vertex="1" parent="6Q9TmJvOrxfbNUQ0NDXa-11">
          <mxGeometry y="56" width="160" height="30" as="geometry" />
        </mxCell>
        <mxCell id="6Q9TmJvOrxfbNUQ0NDXa-14" value="Date: 23/12/2013" style="text;strokeColor=none;fillColor=none;align=left;verticalAlign=middle;spacingLeft=4;spacingRight=4;overflow=hidden;points=[[0,0.5],[1,0.5]];portConstraint=eastwest;rotatable=0;" vertex="1" parent="6Q9TmJvOrxfbNUQ0NDXa-11">
          <mxGeometry y="86" width="160" height="30" as="geometry" />
        </mxCell>
        <mxCell id="6Q9TmJvOrxfbNUQ0NDXa-15" value="Time: 10.0" style="text;strokeColor=none;fillColor=none;align=left;verticalAlign=middle;spacingLeft=4;spacingRight=4;overflow=hidden;points=[[0,0.5],[1,0.5]];portConstraint=eastwest;rotatable=0;" vertex="1" parent="6Q9TmJvOrxfbNUQ0NDXa-11">
          <mxGeometry y="116" width="160" height="30" as="geometry" />
        </mxCell>
        <mxCell id="6Q9TmJvOrxfbNUQ0NDXa-16" value="Amount: 9,99" style="text;strokeColor=none;fillColor=none;align=left;verticalAlign=middle;spacingLeft=4;spacingRight=4;overflow=hidden;points=[[0,0.5],[1,0.5]];portConstraint=eastwest;rotatable=0;" vertex="1" parent="6Q9TmJvOrxfbNUQ0NDXa-11">
          <mxGeometry y="146" width="160" height="30" as="geometry" />
        </mxCell>
        <mxCell id="6Q9TmJvOrxfbNUQ0NDXa-17" value="" style="line;html=1;strokeWidth=1;fillColor=none;align=left;verticalAlign=middle;spacingTop=-1;spacingLeft=3;spacingRight=3;rotatable=0;labelPosition=right;points=[];portConstraint=eastwest;" vertex="1" parent="6Q9TmJvOrxfbNUQ0NDXa-11">
          <mxGeometry y="176" width="160" height="8" as="geometry" />
        </mxCell>
        <mxCell id="6Q9TmJvOrxfbNUQ0NDXa-18" value="t2: Ticket" style="swimlane;html=1;fontStyle=1;align=center;verticalAlign=top;childLayout=stackLayout;horizontal=1;startSize=26;horizontalStack=0;resizeParent=1;resizeLast=0;collapsible=1;marginBottom=0;swimlaneFillColor=#ffffff;rounded=0;shadow=0;comic=0;labelBackgroundColor=none;strokeWidth=1;fillColor=none;fontFamily=Verdana;fontSize=12" vertex="1" parent="WIyWlLk6GJQsqaUBKTNV-1">
          <mxGeometry x="215" y="430" width="160" height="184" as="geometry" />
        </mxCell>
        <mxCell id="6Q9TmJvOrxfbNUQ0NDXa-19" value="movie name : Bad Boys" style="text;strokeColor=none;fillColor=none;align=left;verticalAlign=middle;spacingLeft=4;spacingRight=4;overflow=hidden;points=[[0,0.5],[1,0.5]];portConstraint=eastwest;rotatable=0;" vertex="1" parent="6Q9TmJvOrxfbNUQ0NDXa-18">
          <mxGeometry y="26" width="160" height="30" as="geometry" />
        </mxCell>
        <mxCell id="6Q9TmJvOrxfbNUQ0NDXa-20" value="No ticket: 0001564" style="text;strokeColor=none;fillColor=none;align=left;verticalAlign=middle;spacingLeft=4;spacingRight=4;overflow=hidden;points=[[0,0.5],[1,0.5]];portConstraint=eastwest;rotatable=0;" vertex="1" parent="6Q9TmJvOrxfbNUQ0NDXa-18">
          <mxGeometry y="56" width="160" height="30" as="geometry" />
        </mxCell>
        <mxCell id="6Q9TmJvOrxfbNUQ0NDXa-21" value="Date: 23/12/2013" style="text;strokeColor=none;fillColor=none;align=left;verticalAlign=middle;spacingLeft=4;spacingRight=4;overflow=hidden;points=[[0,0.5],[1,0.5]];portConstraint=eastwest;rotatable=0;" vertex="1" parent="6Q9TmJvOrxfbNUQ0NDXa-18">
          <mxGeometry y="86" width="160" height="30" as="geometry" />
        </mxCell>
        <mxCell id="6Q9TmJvOrxfbNUQ0NDXa-22" value="Time: 10.0" style="text;strokeColor=none;fillColor=none;align=left;verticalAlign=middle;spacingLeft=4;spacingRight=4;overflow=hidden;points=[[0,0.5],[1,0.5]];portConstraint=eastwest;rotatable=0;" vertex="1" parent="6Q9TmJvOrxfbNUQ0NDXa-18">
          <mxGeometry y="116" width="160" height="30" as="geometry" />
        </mxCell>
        <mxCell id="6Q9TmJvOrxfbNUQ0NDXa-23" value="Amount: 9,99" style="text;strokeColor=none;fillColor=none;align=left;verticalAlign=middle;spacingLeft=4;spacingRight=4;overflow=hidden;points=[[0,0.5],[1,0.5]];portConstraint=eastwest;rotatable=0;" vertex="1" parent="6Q9TmJvOrxfbNUQ0NDXa-18">
          <mxGeometry y="146" width="160" height="30" as="geometry" />
        </mxCell>
        <mxCell id="6Q9TmJvOrxfbNUQ0NDXa-24" value="" style="line;html=1;strokeWidth=1;fillColor=none;align=left;verticalAlign=middle;spacingTop=-1;spacingLeft=3;spacingRight=3;rotatable=0;labelPosition=right;points=[];portConstraint=eastwest;" vertex="1" parent="6Q9TmJvOrxfbNUQ0NDXa-18">
          <mxGeometry y="176" width="160" height="8" as="geometry" />
        </mxCell>
        <mxCell id="6Q9TmJvOrxfbNUQ0NDXa-25" value="b: Bank Server" style="swimlane;html=1;fontStyle=1;align=center;verticalAlign=top;childLayout=stackLayout;horizontal=1;startSize=26;horizontalStack=0;resizeParent=1;resizeLast=0;collapsible=1;marginBottom=0;swimlaneFillColor=#ffffff;rounded=0;shadow=0;comic=0;labelBackgroundColor=none;strokeWidth=1;fillColor=none;fontFamily=Verdana;fontSize=12" vertex="1" parent="WIyWlLk6GJQsqaUBKTNV-1">
          <mxGeometry x="470" y="430" width="160" height="124" as="geometry" />
        </mxCell>
        <mxCell id="6Q9TmJvOrxfbNUQ0NDXa-26" value="name : Lloyds" style="text;strokeColor=none;fillColor=none;align=left;verticalAlign=middle;spacingLeft=4;spacingRight=4;overflow=hidden;points=[[0,0.5],[1,0.5]];portConstraint=eastwest;rotatable=0;" vertex="1" parent="6Q9TmJvOrxfbNUQ0NDXa-25">
          <mxGeometry y="26" width="160" height="30" as="geometry" />
        </mxCell>
        <mxCell id="6Q9TmJvOrxfbNUQ0NDXa-27" value="account : xxxx 9911" style="text;strokeColor=none;fillColor=none;align=left;verticalAlign=middle;spacingLeft=4;spacingRight=4;overflow=hidden;points=[[0,0.5],[1,0.5]];portConstraint=eastwest;rotatable=0;" vertex="1" parent="6Q9TmJvOrxfbNUQ0NDXa-25">
          <mxGeometry y="56" width="160" height="30" as="geometry" />
        </mxCell>
        <mxCell id="6Q9TmJvOrxfbNUQ0NDXa-28" value="Available funds: 1138.75" style="text;strokeColor=none;fillColor=none;align=left;verticalAlign=middle;spacingLeft=4;spacingRight=4;overflow=hidden;points=[[0,0.5],[1,0.5]];portConstraint=eastwest;rotatable=0;" vertex="1" parent="6Q9TmJvOrxfbNUQ0NDXa-25">
          <mxGeometry y="86" width="160" height="30" as="geometry" />
        </mxCell>
        <mxCell id="6Q9TmJvOrxfbNUQ0NDXa-29" value="" style="line;html=1;strokeWidth=1;fillColor=none;align=left;verticalAlign=middle;spacingTop=-1;spacingLeft=3;spacingRight=3;rotatable=0;labelPosition=right;points=[];portConstraint=eastwest;" vertex="1" parent="6Q9TmJvOrxfbNUQ0NDXa-25">
          <mxGeometry y="116" width="160" height="8" as="geometry" />
        </mxCell>
        <mxCell id="6Q9TmJvOrxfbNUQ0NDXa-30" style="edgeStyle=orthogonalEdgeStyle;rounded=0;orthogonalLoop=1;jettySize=auto;html=1;exitX=1;exitY=0.5;exitDx=0;exitDy=0;entryX=0;entryY=0.5;entryDx=0;entryDy=0;" edge="1" parent="WIyWlLk6GJQsqaUBKTNV-1" source="6Q9TmJvOrxfbNUQ0NDXa-32" target="6Q9TmJvOrxfbNUQ0NDXa-50">
          <mxGeometry relative="1" as="geometry" />
        </mxCell>
        <mxCell id="6Q9TmJvOrxfbNUQ0NDXa-31" style="edgeStyle=orthogonalEdgeStyle;rounded=0;orthogonalLoop=1;jettySize=auto;html=1;exitX=0.5;exitY=0;exitDx=0;exitDy=0;entryX=0.5;entryY=1;entryDx=0;entryDy=0;" edge="1" parent="WIyWlLk6GJQsqaUBKTNV-1" source="6Q9TmJvOrxfbNUQ0NDXa-32" target="6Q9TmJvOrxfbNUQ0NDXa-41">
          <mxGeometry relative="1" as="geometry" />
        </mxCell>
        <mxCell id="6Q9TmJvOrxfbNUQ0NDXa-32" value="cine: Cinema" style="swimlane;html=1;fontStyle=1;align=center;verticalAlign=top;childLayout=stackLayout;horizontal=1;startSize=26;horizontalStack=0;resizeParent=1;resizeLast=0;collapsible=1;marginBottom=0;swimlaneFillColor=#ffffff;rounded=0;shadow=0;comic=0;labelBackgroundColor=none;strokeWidth=1;fillColor=none;fontFamily=Verdana;fontSize=12" vertex="1" parent="WIyWlLk6GJQsqaUBKTNV-1">
          <mxGeometry x="520" y="195" width="170" height="124" as="geometry" />
        </mxCell>
        <mxCell id="6Q9TmJvOrxfbNUQ0NDXa-33" value="name : Grand Rex" style="text;strokeColor=none;fillColor=none;align=left;verticalAlign=middle;spacingLeft=4;spacingRight=4;overflow=hidden;points=[[0,0.5],[1,0.5]];portConstraint=eastwest;rotatable=0;" vertex="1" parent="6Q9TmJvOrxfbNUQ0NDXa-32">
          <mxGeometry y="26" width="170" height="30" as="geometry" />
        </mxCell>
        <mxCell id="6Q9TmJvOrxfbNUQ0NDXa-34" value="Address: 1 Bd Poissonnière,&#xa;               75002 Paris, France" style="text;strokeColor=none;fillColor=none;align=left;verticalAlign=middle;spacingLeft=4;spacingRight=4;overflow=hidden;points=[[0,0.5],[1,0.5]];portConstraint=eastwest;rotatable=0;" vertex="1" parent="6Q9TmJvOrxfbNUQ0NDXa-32">
          <mxGeometry y="56" width="170" height="30" as="geometry" />
        </mxCell>
        <mxCell id="6Q9TmJvOrxfbNUQ0NDXa-35" value="Movies: [Bad Boys, Iron-Man,&#xa;               Divergente, ...]" style="text;strokeColor=none;fillColor=none;align=left;verticalAlign=middle;spacingLeft=4;spacingRight=4;overflow=hidden;points=[[0,0.5],[1,0.5]];portConstraint=eastwest;rotatable=0;" vertex="1" parent="6Q9TmJvOrxfbNUQ0NDXa-32">
          <mxGeometry y="86" width="170" height="30" as="geometry" />
        </mxCell>
        <mxCell id="6Q9TmJvOrxfbNUQ0NDXa-36" value="" style="line;html=1;strokeWidth=1;fillColor=none;align=left;verticalAlign=middle;spacingTop=-1;spacingLeft=3;spacingRight=3;rotatable=0;labelPosition=right;points=[];portConstraint=eastwest;" vertex="1" parent="6Q9TmJvOrxfbNUQ0NDXa-32">
          <mxGeometry y="116" width="170" height="8" as="geometry" />
        </mxCell>
        <mxCell id="6Q9TmJvOrxfbNUQ0NDXa-37" value="g: Guest" style="swimlane;html=1;fontStyle=1;align=center;verticalAlign=top;childLayout=stackLayout;horizontal=1;startSize=26;horizontalStack=0;resizeParent=1;resizeLast=0;collapsible=1;marginBottom=0;swimlaneFillColor=#ffffff;rounded=0;shadow=0;comic=0;labelBackgroundColor=none;strokeWidth=1;fillColor=none;fontFamily=Verdana;fontSize=12" vertex="1" parent="WIyWlLk6GJQsqaUBKTNV-1">
          <mxGeometry x="70" y="70" width="160" height="94" as="geometry" />
        </mxCell>
        <mxCell id="6Q9TmJvOrxfbNUQ0NDXa-38" value="Id: guest99" style="text;strokeColor=none;fillColor=none;align=left;verticalAlign=middle;spacingLeft=4;spacingRight=4;overflow=hidden;points=[[0,0.5],[1,0.5]];portConstraint=eastwest;rotatable=0;" vertex="1" parent="6Q9TmJvOrxfbNUQ0NDXa-37">
          <mxGeometry y="26" width="160" height="30" as="geometry" />
        </mxCell>
        <mxCell id="6Q9TmJvOrxfbNUQ0NDXa-39" value="name: Robert" style="text;strokeColor=none;fillColor=none;align=left;verticalAlign=middle;spacingLeft=4;spacingRight=4;overflow=hidden;points=[[0,0.5],[1,0.5]];portConstraint=eastwest;rotatable=0;" vertex="1" parent="6Q9TmJvOrxfbNUQ0NDXa-37">
          <mxGeometry y="56" width="160" height="30" as="geometry" />
        </mxCell>
        <mxCell id="6Q9TmJvOrxfbNUQ0NDXa-40" value="" style="line;html=1;strokeWidth=1;fillColor=none;align=left;verticalAlign=middle;spacingTop=-1;spacingLeft=3;spacingRight=3;rotatable=0;labelPosition=right;points=[];portConstraint=eastwest;" vertex="1" parent="6Q9TmJvOrxfbNUQ0NDXa-37">
          <mxGeometry y="86" width="160" height="8" as="geometry" />
        </mxCell>
        <mxCell id="6Q9TmJvOrxfbNUQ0NDXa-41" value="a: Admin" style="swimlane;html=1;fontStyle=1;align=center;verticalAlign=top;childLayout=stackLayout;horizontal=1;startSize=26;horizontalStack=0;resizeParent=1;resizeLast=0;collapsible=1;marginBottom=0;swimlaneFillColor=#ffffff;rounded=0;shadow=0;comic=0;labelBackgroundColor=none;strokeWidth=1;fillColor=none;fontFamily=Verdana;fontSize=12" vertex="1" parent="WIyWlLk6GJQsqaUBKTNV-1">
          <mxGeometry x="510" y="20" width="140" height="124" as="geometry" />
        </mxCell>
        <mxCell id="6Q9TmJvOrxfbNUQ0NDXa-42" value="Id: admin01" style="text;strokeColor=none;fillColor=none;align=left;verticalAlign=middle;spacingLeft=4;spacingRight=4;overflow=hidden;points=[[0,0.5],[1,0.5]];portConstraint=eastwest;rotatable=0;" vertex="1" parent="6Q9TmJvOrxfbNUQ0NDXa-41">
          <mxGeometry y="26" width="140" height="30" as="geometry" />
        </mxCell>
        <mxCell id="6Q9TmJvOrxfbNUQ0NDXa-43" value="name: Charles" style="text;strokeColor=none;fillColor=none;align=left;verticalAlign=middle;spacingLeft=4;spacingRight=4;overflow=hidden;points=[[0,0.5],[1,0.5]];portConstraint=eastwest;rotatable=0;" vertex="1" parent="6Q9TmJvOrxfbNUQ0NDXa-41">
          <mxGeometry y="56" width="140" height="30" as="geometry" />
        </mxCell>
        <mxCell id="6Q9TmJvOrxfbNUQ0NDXa-44" value="password: 58#34" style="text;strokeColor=none;fillColor=none;align=left;verticalAlign=middle;spacingLeft=4;spacingRight=4;overflow=hidden;points=[[0,0.5],[1,0.5]];portConstraint=eastwest;rotatable=0;" vertex="1" parent="6Q9TmJvOrxfbNUQ0NDXa-41">
          <mxGeometry y="86" width="140" height="30" as="geometry" />
        </mxCell>
        <mxCell id="6Q9TmJvOrxfbNUQ0NDXa-45" value="" style="line;html=1;strokeWidth=1;fillColor=none;align=left;verticalAlign=middle;spacingTop=-1;spacingLeft=3;spacingRight=3;rotatable=0;labelPosition=right;points=[];portConstraint=eastwest;" vertex="1" parent="6Q9TmJvOrxfbNUQ0NDXa-41">
          <mxGeometry y="116" width="140" height="8" as="geometry" />
        </mxCell>
        <mxCell id="6Q9TmJvOrxfbNUQ0NDXa-46" value="" style="edgeStyle=orthogonalEdgeStyle;rounded=0;orthogonalLoop=1;jettySize=auto;html=1;" edge="1" parent="WIyWlLk6GJQsqaUBKTNV-1" source="6Q9TmJvOrxfbNUQ0NDXa-50" target="6Q9TmJvOrxfbNUQ0NDXa-54">
          <mxGeometry relative="1" as="geometry" />
        </mxCell>
        <mxCell id="6Q9TmJvOrxfbNUQ0NDXa-47" style="edgeStyle=orthogonalEdgeStyle;rounded=0;orthogonalLoop=1;jettySize=auto;html=1;exitX=0.5;exitY=1;exitDx=0;exitDy=0;" edge="1" parent="WIyWlLk6GJQsqaUBKTNV-1" source="6Q9TmJvOrxfbNUQ0NDXa-50" target="6Q9TmJvOrxfbNUQ0NDXa-64">
          <mxGeometry relative="1" as="geometry" />
        </mxCell>
        <mxCell id="6Q9TmJvOrxfbNUQ0NDXa-48" style="edgeStyle=orthogonalEdgeStyle;rounded=0;orthogonalLoop=1;jettySize=auto;html=1;exitX=0.5;exitY=1;exitDx=0;exitDy=0;" edge="1" parent="WIyWlLk6GJQsqaUBKTNV-1" source="6Q9TmJvOrxfbNUQ0NDXa-50" target="6Q9TmJvOrxfbNUQ0NDXa-69">
          <mxGeometry relative="1" as="geometry" />
        </mxCell>
        <mxCell id="6Q9TmJvOrxfbNUQ0NDXa-49" style="edgeStyle=orthogonalEdgeStyle;rounded=0;orthogonalLoop=1;jettySize=auto;html=1;exitX=0.5;exitY=1;exitDx=0;exitDy=0;entryX=0.5;entryY=0;entryDx=0;entryDy=0;" edge="1" parent="WIyWlLk6GJQsqaUBKTNV-1" source="6Q9TmJvOrxfbNUQ0NDXa-50" target="6Q9TmJvOrxfbNUQ0NDXa-74">
          <mxGeometry relative="1" as="geometry" />
        </mxCell>
        <mxCell id="6Q9TmJvOrxfbNUQ0NDXa-50" value="movie: Movie" style="swimlane;html=1;fontStyle=1;align=center;verticalAlign=top;childLayout=stackLayout;horizontal=1;startSize=26;horizontalStack=0;resizeParent=1;resizeLast=0;collapsible=1;marginBottom=0;swimlaneFillColor=#ffffff;rounded=0;shadow=0;comic=0;labelBackgroundColor=none;strokeWidth=1;fillColor=none;fontFamily=Verdana;fontSize=12" vertex="1" parent="WIyWlLk6GJQsqaUBKTNV-1">
          <mxGeometry x="740" y="210" width="150" height="94" as="geometry" />
        </mxCell>
        <mxCell id="6Q9TmJvOrxfbNUQ0NDXa-51" value="name: Bad Boys" style="text;strokeColor=none;fillColor=none;align=left;verticalAlign=middle;spacingLeft=4;spacingRight=4;overflow=hidden;points=[[0,0.5],[1,0.5]];portConstraint=eastwest;rotatable=0;" vertex="1" parent="6Q9TmJvOrxfbNUQ0NDXa-50">
          <mxGeometry y="26" width="150" height="30" as="geometry" />
        </mxCell>
        <mxCell id="6Q9TmJvOrxfbNUQ0NDXa-52" value="Schedule: [10,13,16,22]" style="text;strokeColor=none;fillColor=none;align=left;verticalAlign=middle;spacingLeft=4;spacingRight=4;overflow=hidden;points=[[0,0.5],[1,0.5]];portConstraint=eastwest;rotatable=0;" vertex="1" parent="6Q9TmJvOrxfbNUQ0NDXa-50">
          <mxGeometry y="56" width="150" height="30" as="geometry" />
        </mxCell>
        <mxCell id="6Q9TmJvOrxfbNUQ0NDXa-53" value="" style="line;html=1;strokeWidth=1;fillColor=none;align=left;verticalAlign=middle;spacingTop=-1;spacingLeft=3;spacingRight=3;rotatable=0;labelPosition=right;points=[];portConstraint=eastwest;" vertex="1" parent="6Q9TmJvOrxfbNUQ0NDXa-50">
          <mxGeometry y="86" width="150" height="8" as="geometry" />
        </mxCell>
        <mxCell id="6Q9TmJvOrxfbNUQ0NDXa-54" value="ses1: Session" style="swimlane;html=1;fontStyle=1;align=center;verticalAlign=top;childLayout=stackLayout;horizontal=1;startSize=26;horizontalStack=0;resizeParent=1;resizeLast=0;collapsible=1;marginBottom=0;swimlaneFillColor=#ffffff;rounded=0;shadow=0;comic=0;labelBackgroundColor=none;strokeWidth=1;fillColor=none;fontFamily=Verdana;fontSize=12" vertex="1" parent="WIyWlLk6GJQsqaUBKTNV-1">
          <mxGeometry x="650" y="350" width="123" height="124" as="geometry" />
        </mxCell>
        <mxCell id="6Q9TmJvOrxfbNUQ0NDXa-55" value="Time: 10" style="text;strokeColor=none;fillColor=none;align=left;verticalAlign=middle;spacingLeft=4;spacingRight=4;overflow=hidden;points=[[0,0.5],[1,0.5]];portConstraint=eastwest;rotatable=0;" vertex="1" parent="6Q9TmJvOrxfbNUQ0NDXa-54">
          <mxGeometry y="26" width="123" height="30" as="geometry" />
        </mxCell>
        <mxCell id="6Q9TmJvOrxfbNUQ0NDXa-56" value="Seats Available: 50" style="text;strokeColor=none;fillColor=none;align=left;verticalAlign=middle;spacingLeft=4;spacingRight=4;overflow=hidden;points=[[0,0.5],[1,0.5]];portConstraint=eastwest;rotatable=0;" vertex="1" parent="6Q9TmJvOrxfbNUQ0NDXa-54">
          <mxGeometry y="56" width="123" height="30" as="geometry" />
        </mxCell>
        <mxCell id="6Q9TmJvOrxfbNUQ0NDXa-57" value="Type of session: 3D" style="text;strokeColor=none;fillColor=none;align=left;verticalAlign=middle;spacingLeft=4;spacingRight=4;overflow=hidden;points=[[0,0.5],[1,0.5]];portConstraint=eastwest;rotatable=0;" vertex="1" parent="6Q9TmJvOrxfbNUQ0NDXa-54">
          <mxGeometry y="86" width="123" height="30" as="geometry" />
        </mxCell>
        <mxCell id="6Q9TmJvOrxfbNUQ0NDXa-58" value="" style="line;html=1;strokeWidth=1;fillColor=none;align=left;verticalAlign=middle;spacingTop=-1;spacingLeft=3;spacingRight=3;rotatable=0;labelPosition=right;points=[];portConstraint=eastwest;" vertex="1" parent="6Q9TmJvOrxfbNUQ0NDXa-54">
          <mxGeometry y="116" width="123" height="8" as="geometry" />
        </mxCell>
        <mxCell id="6Q9TmJvOrxfbNUQ0NDXa-59" value="o: Caishier" style="swimlane;html=1;fontStyle=1;align=center;verticalAlign=top;childLayout=stackLayout;horizontal=1;startSize=26;horizontalStack=0;resizeParent=1;resizeLast=0;collapsible=1;marginBottom=0;swimlaneFillColor=#ffffff;rounded=0;shadow=0;comic=0;labelBackgroundColor=none;strokeWidth=1;fillColor=none;fontFamily=Verdana;fontSize=12" vertex="1" parent="WIyWlLk6GJQsqaUBKTNV-1">
          <mxGeometry x="70" y="190" width="160" height="124" as="geometry" />
        </mxCell>
        <mxCell id="6Q9TmJvOrxfbNUQ0NDXa-60" value="Id: b12p" style="text;strokeColor=none;fillColor=none;align=left;verticalAlign=middle;spacingLeft=4;spacingRight=4;overflow=hidden;points=[[0,0.5],[1,0.5]];portConstraint=eastwest;rotatable=0;" vertex="1" parent="6Q9TmJvOrxfbNUQ0NDXa-59">
          <mxGeometry y="26" width="160" height="30" as="geometry" />
        </mxCell>
        <mxCell id="6Q9TmJvOrxfbNUQ0NDXa-61" value="name: Bob" style="text;strokeColor=none;fillColor=none;align=left;verticalAlign=middle;spacingLeft=4;spacingRight=4;overflow=hidden;points=[[0,0.5],[1,0.5]];portConstraint=eastwest;rotatable=0;" vertex="1" parent="6Q9TmJvOrxfbNUQ0NDXa-59">
          <mxGeometry y="56" width="160" height="30" as="geometry" />
        </mxCell>
        <mxCell id="6Q9TmJvOrxfbNUQ0NDXa-62" value="password: 12#32" style="text;strokeColor=none;fillColor=none;align=left;verticalAlign=middle;spacingLeft=4;spacingRight=4;overflow=hidden;points=[[0,0.5],[1,0.5]];portConstraint=eastwest;rotatable=0;" vertex="1" parent="6Q9TmJvOrxfbNUQ0NDXa-59">
          <mxGeometry y="86" width="160" height="30" as="geometry" />
        </mxCell>
        <mxCell id="6Q9TmJvOrxfbNUQ0NDXa-63" value="" style="line;html=1;strokeWidth=1;fillColor=none;align=left;verticalAlign=middle;spacingTop=-1;spacingLeft=3;spacingRight=3;rotatable=0;labelPosition=right;points=[];portConstraint=eastwest;" vertex="1" parent="6Q9TmJvOrxfbNUQ0NDXa-59">
          <mxGeometry y="116" width="160" height="8" as="geometry" />
        </mxCell>
        <mxCell id="6Q9TmJvOrxfbNUQ0NDXa-64" value="ses2: Session" style="swimlane;html=1;fontStyle=1;align=center;verticalAlign=top;childLayout=stackLayout;horizontal=1;startSize=26;horizontalStack=0;resizeParent=1;resizeLast=0;collapsible=1;marginBottom=0;swimlaneFillColor=#ffffff;rounded=0;shadow=0;comic=0;labelBackgroundColor=none;strokeWidth=1;fillColor=none;fontFamily=Verdana;fontSize=12" vertex="1" parent="WIyWlLk6GJQsqaUBKTNV-1">
          <mxGeometry x="783" y="350" width="127" height="124" as="geometry" />
        </mxCell>
        <mxCell id="6Q9TmJvOrxfbNUQ0NDXa-65" value="Time: 13" style="text;strokeColor=none;fillColor=none;align=left;verticalAlign=middle;spacingLeft=4;spacingRight=4;overflow=hidden;points=[[0,0.5],[1,0.5]];portConstraint=eastwest;rotatable=0;" vertex="1" parent="6Q9TmJvOrxfbNUQ0NDXa-64">
          <mxGeometry y="26" width="127" height="30" as="geometry" />
        </mxCell>
        <mxCell id="6Q9TmJvOrxfbNUQ0NDXa-66" value="Seats Available: 13" style="text;strokeColor=none;fillColor=none;align=left;verticalAlign=middle;spacingLeft=4;spacingRight=4;overflow=hidden;points=[[0,0.5],[1,0.5]];portConstraint=eastwest;rotatable=0;" vertex="1" parent="6Q9TmJvOrxfbNUQ0NDXa-64">
          <mxGeometry y="56" width="127" height="30" as="geometry" />
        </mxCell>
        <mxCell id="6Q9TmJvOrxfbNUQ0NDXa-67" value="Type of session: OVS" style="text;strokeColor=none;fillColor=none;align=left;verticalAlign=middle;spacingLeft=4;spacingRight=4;overflow=hidden;points=[[0,0.5],[1,0.5]];portConstraint=eastwest;rotatable=0;" vertex="1" parent="6Q9TmJvOrxfbNUQ0NDXa-64">
          <mxGeometry y="86" width="127" height="30" as="geometry" />
        </mxCell>
        <mxCell id="6Q9TmJvOrxfbNUQ0NDXa-68" value="" style="line;html=1;strokeWidth=1;fillColor=none;align=left;verticalAlign=middle;spacingTop=-1;spacingLeft=3;spacingRight=3;rotatable=0;labelPosition=right;points=[];portConstraint=eastwest;" vertex="1" parent="6Q9TmJvOrxfbNUQ0NDXa-64">
          <mxGeometry y="116" width="127" height="8" as="geometry" />
        </mxCell>
        <mxCell id="6Q9TmJvOrxfbNUQ0NDXa-69" value="ses3: Session" style="swimlane;html=1;fontStyle=1;align=center;verticalAlign=top;childLayout=stackLayout;horizontal=1;startSize=26;horizontalStack=0;resizeParent=1;resizeLast=0;collapsible=1;marginBottom=0;swimlaneFillColor=#ffffff;rounded=0;shadow=0;comic=0;labelBackgroundColor=none;strokeWidth=1;fillColor=none;fontFamily=Verdana;fontSize=12" vertex="1" parent="WIyWlLk6GJQsqaUBKTNV-1">
          <mxGeometry x="920" y="350" width="130" height="124" as="geometry" />
        </mxCell>
        <mxCell id="6Q9TmJvOrxfbNUQ0NDXa-70" value="Time: 16" style="text;strokeColor=none;fillColor=none;align=left;verticalAlign=middle;spacingLeft=4;spacingRight=4;overflow=hidden;points=[[0,0.5],[1,0.5]];portConstraint=eastwest;rotatable=0;" vertex="1" parent="6Q9TmJvOrxfbNUQ0NDXa-69">
          <mxGeometry y="26" width="130" height="30" as="geometry" />
        </mxCell>
        <mxCell id="6Q9TmJvOrxfbNUQ0NDXa-71" value="Seats Available: 0" style="text;strokeColor=none;fillColor=none;align=left;verticalAlign=middle;spacingLeft=4;spacingRight=4;overflow=hidden;points=[[0,0.5],[1,0.5]];portConstraint=eastwest;rotatable=0;" vertex="1" parent="6Q9TmJvOrxfbNUQ0NDXa-69">
          <mxGeometry y="56" width="130" height="30" as="geometry" />
        </mxCell>
        <mxCell id="6Q9TmJvOrxfbNUQ0NDXa-72" value="Type of session: Dolby" style="text;strokeColor=none;fillColor=none;align=left;verticalAlign=middle;spacingLeft=4;spacingRight=4;overflow=hidden;points=[[0,0.5],[1,0.5]];portConstraint=eastwest;rotatable=0;" vertex="1" parent="6Q9TmJvOrxfbNUQ0NDXa-69">
          <mxGeometry y="86" width="130" height="30" as="geometry" />
        </mxCell>
        <mxCell id="6Q9TmJvOrxfbNUQ0NDXa-73" value="" style="line;html=1;strokeWidth=1;fillColor=none;align=left;verticalAlign=middle;spacingTop=-1;spacingLeft=3;spacingRight=3;rotatable=0;labelPosition=right;points=[];portConstraint=eastwest;" vertex="1" parent="6Q9TmJvOrxfbNUQ0NDXa-69">
          <mxGeometry y="116" width="130" height="8" as="geometry" />
        </mxCell>
        <mxCell id="6Q9TmJvOrxfbNUQ0NDXa-74" value="ses4: Session" style="swimlane;html=1;fontStyle=1;align=center;verticalAlign=top;childLayout=stackLayout;horizontal=1;startSize=26;horizontalStack=0;resizeParent=1;resizeLast=0;collapsible=1;marginBottom=0;swimlaneFillColor=#ffffff;rounded=0;shadow=0;comic=0;labelBackgroundColor=none;strokeWidth=1;fillColor=none;fontFamily=Verdana;fontSize=12" vertex="1" parent="WIyWlLk6GJQsqaUBKTNV-1">
          <mxGeometry x="1060" y="350" width="120" height="124" as="geometry" />
        </mxCell>
        <mxCell id="6Q9TmJvOrxfbNUQ0NDXa-75" value="Time: 22" style="text;strokeColor=none;fillColor=none;align=left;verticalAlign=middle;spacingLeft=4;spacingRight=4;overflow=hidden;points=[[0,0.5],[1,0.5]];portConstraint=eastwest;rotatable=0;" vertex="1" parent="6Q9TmJvOrxfbNUQ0NDXa-74">
          <mxGeometry y="26" width="120" height="30" as="geometry" />
        </mxCell>
        <mxCell id="6Q9TmJvOrxfbNUQ0NDXa-76" value="Seats Available: 57" style="text;strokeColor=none;fillColor=none;align=left;verticalAlign=middle;spacingLeft=4;spacingRight=4;overflow=hidden;points=[[0,0.5],[1,0.5]];portConstraint=eastwest;rotatable=0;" vertex="1" parent="6Q9TmJvOrxfbNUQ0NDXa-74">
          <mxGeometry y="56" width="120" height="30" as="geometry" />
        </mxCell>
        <mxCell id="6Q9TmJvOrxfbNUQ0NDXa-77" value="Type of session: 3D" style="text;strokeColor=none;fillColor=none;align=left;verticalAlign=middle;spacingLeft=4;spacingRight=4;overflow=hidden;points=[[0,0.5],[1,0.5]];portConstraint=eastwest;rotatable=0;" vertex="1" parent="6Q9TmJvOrxfbNUQ0NDXa-74">
          <mxGeometry y="86" width="120" height="30" as="geometry" />
        </mxCell>
        <mxCell id="6Q9TmJvOrxfbNUQ0NDXa-78" value="" style="line;html=1;strokeWidth=1;fillColor=none;align=left;verticalAlign=middle;spacingTop=-1;spacingLeft=3;spacingRight=3;rotatable=0;labelPosition=right;points=[];portConstraint=eastwest;" vertex="1" parent="6Q9TmJvOrxfbNUQ0NDXa-74">
          <mxGeometry y="116" width="120" height="8" as="geometry" />
        </mxCell>
      </root>
    </mxGraphModel>
  </diagram>
</mxfile>
